<?xml version="1.0" standalone="no"?>
<!DOCTYPE svg PUBLIC "-//W3C//DTD SVG 20010904//EN"
 "http://www.w3.org/TR/2001/REC-SVG-20010904/DTD/svg10.dtd">
<svg version="1.0" xmlns="http://www.w3.org/2000/svg"
 width="260.000000pt" height="260.000000pt" viewBox="0 0 260.000000 260.000000"
 preserveAspectRatio="xMidYMid meet">
<metadata>
Created by potrace 1.11, written by Peter Selinger 2001-2013
</metadata>
<g transform="translate(0.000000,260.000000) scale(0.100000,-0.100000)"
fill="#000000" stroke="none">
<path d="M379 2585 c-177 -48 -318 -190 -365 -368 -11 -42 -14 -215 -13 -917
0 -797 2 -870 18 -931 46 -171 187 -308 364 -355 68 -18 1735 -20 1820 -3 187
39 347 200 386 387 15 73 15 1736 0 1807 -40 188 -207 350 -394 384 -91 17
-1754 13 -1816 -4z"/>
</g>
</svg>
